<svg viewBox="0 0 115 98" xmlns="http://www.w3.org/2000/svg" fill-rule="evenodd" clip-rule="evenodd" stroke-linejoin="round" stroke-miterlimit="2"><path d="M112.386 80.126L78.013 45.357a31.45 31.45 0 0 0 3.017-13.524C81.03 14.28 66.75 0 49.198 0 33.652 0 20.682 11.204 17.917 25.959a56.538 56.538 0 0 0-5.501 4.649c-4.95 4.747-8.803 10.08-10.849 15.016-2.218 5.35-2.077 9.717.397 12.297 1.404 1.464 3.414 2.201 5.884 2.201 1.883 0 4.033-.429 6.385-1.29 3.505-1.284 7.239-3.443 10.859-6.244 5.842 6.775 14.478 11.077 24.106 11.077 4.683 0 9.184-.994 13.397-2.958l7.627 7.715c.272.275.636.44 1.023.462l8.956.513-.157 8.287a1.563 1.563 0 0 0 1.691 1.589l11.024-.9L91.2 88.749c-.073.488.088.982.435 1.333l5.279 5.34a5.978 5.978 0 0 0 4.266 1.778 5.98 5.98 0 0 0 4.217-1.73l6.94-6.86a6.007 6.007 0 0 0 .049-8.484zM13.157 55.894c-4.139 1.516-7.396 1.466-8.935-.139-1.539-1.605-1.453-4.861.235-8.933 1.884-4.545 5.48-9.502 10.124-13.956a55.361 55.361 0 0 1 2.822-2.523 31.646 31.646 0 0 0 5.766 19.781c-3.36 2.6-6.802 4.594-10.012 5.77zm96.98 30.491l-6.94 6.86a2.873 2.873 0 0 1-4.058-.023l-4.728-4.783 1.736-11.554a1.564 1.564 0 0 0-1.675-1.792l-11.268.921.154-8.063a1.564 1.564 0 0 0-1.475-1.591l-9.859-.566-7.993-8.084a1.563 1.563 0 0 0-1.823-.294 28.399 28.399 0 0 1-13.01 3.12c-8.655 0-16.421-3.855-21.688-9.932a59.162 59.162 0 0 0 2.18-1.984c4.877-4.677 8.684-9.921 10.753-14.796.221.015.441.034.666.034 5.356 0 9.714-4.358 9.714-9.714 0-5.356-4.358-9.713-9.714-9.713-5.356 0-9.713 4.357-9.713 9.713 0 4.023 2.458 7.482 5.951 8.955-1.952 4.353-5.413 9.034-9.823 13.263-.637.611-1.283 1.2-1.936 1.769a28.537 28.537 0 0 1-5.095-16.298c0-15.828 12.877-28.704 28.705-28.704 15.827 0 28.703 12.876 28.703 28.704 0 4.611-1.068 9.024-3.174 13.116a1.564 1.564 0 0 0 .278 1.816l35.155 35.561a2.874 2.874 0 0 1-.023 4.059zM40.141 21.307c-.915-.955-2.123-1.609-3.547-1.943a6.556 6.556 0 0 1 4.515-1.805 6.592 6.592 0 0 1 6.585 6.585c0 3.487-2.726 6.341-6.157 6.563 1.085-4.026.616-7.303-1.396-9.4zm-5.337.945c1.346.084 2.383.494 3.08 1.221 1.243 1.297 1.425 3.673.558 6.686-2.305-1.026-3.918-3.334-3.918-6.015 0-.658.1-1.292.28-1.892z" fill="#fff" fill-rule="nonzero"/></svg>