<svg viewBox="0 0 27 27" xmlns="http://www.w3.org/2000/svg" xml:space="preserve" style="fill-rule:evenodd;clip-rule:evenodd;stroke-linejoin:round;stroke-miterlimit:2"><path d="M20.824 11.173c0-7.341-5.961-13.314-13.288-13.314-7.326 0-13.287 5.973-13.287 13.314 0 7.33 5.961 13.293 13.287 13.293 7.327 0 13.288-5.963 13.288-13.293Zm-1.318 0c0 6.603-5.37 11.975-11.97 11.975-6.6 0-11.969-5.372-11.969-11.975C-4.433 4.558.936-.823 7.536-.823s11.97 5.381 11.97 11.996Zm-5.039.07c0-3.986-2.965-6.902-6.934-6.902-3.985 0-7.144 3.062-7.144 6.999 0 3.872 2.997 6.755 6.933 6.755 1.248 0 2.852-.453 3.807-1.166l-.745-1.296c-.907.68-2.122.988-3.062.988-3.029 0-5.346-2.236-5.346-5.281a5.532 5.532 0 0 1 5.557-5.541c3.37 0 5.362 2.398 5.362 5.492 0 1.555-.664 2.641-1.344 2.641-.357 0-.6-.211-.6-.794V7.679H8.975v.858C8.894 8.359 8.068 7.5 6.772 7.5c-2.025 0-3.321 1.734-3.321 3.807 0 2.252 1.717 3.743 3.531 3.743.924 0 1.815-.389 2.446-1.296l.033.21c.21.875.923 1.264 1.895 1.264 1.815 0 3.111-1.572 3.111-3.985Zm-5.622 0c0 1.117-.615 2.041-1.652 2.041-.972 0-1.588-.956-1.588-2.058 0-1.053.632-1.927 1.572-1.927 1.036 0 1.668.874 1.668 1.944Z" style="fill-rule:nonzero" transform="translate(5.751 2.143)"/></svg>