<svg viewBox="0 0 54 54" xmlns="http://www.w3.org/2000/svg" xml:space="preserve" style="fill-rule:evenodd;clip-rule:evenodd;stroke-linejoin:round;stroke-miterlimit:2">
<g transform="translate(-1110 -953)"><path d="m77.184 87.455-.986-3.817a.616.616 0 0 0-.62-.46l-4.769.198a16.994 16.994 0 0 0-1.568-2.508l2.012-4.513a.613.613 0 0 0-.166-.72l-3.022-2.533a.614.614 0 0 0-.772-.013l-3.766 2.935a16.787 16.787 0 0 0-3.991-1.478L58.18 69.8a.615.615 0 0 0-.591-.445h-3.942c-.29 0-.54.202-.601.485l-1 4.669c-.964.213-1.909.51-2.822.888l-3.865-3.074a.615.615 0 0 0-.739-.019l-3.207 2.293a.614.614 0 0 0-.207.744l1.903 4.384a16.992 16.992 0 0 0-1.778 2.36l-4.934-.254a.616.616 0 0 0-.613.415l-1.275 3.73a.614.614 0 0 0 .265.726l4.094 2.458c-.071.636-.108 1.27-.108 1.892 0 .35.012.701.036 1.064l-4.161 2.663a.612.612 0 0 0-.257.693l1.131 3.777a.614.614 0 0 0 .638.436l4.76-.382c.481.86 1.037 1.679 1.661 2.444l-1.837 4.589a.617.617 0 0 0 .194.714l3.117 2.414a.614.614 0 0 0 .772-.016l3.65-3.078c.893.422 1.823.766 2.775 1.026l1.173 4.797a.613.613 0 0 0 .573.467l3.939.152h.024c.28 0 .525-.189.595-.462l1.179-4.625a16.906 16.906 0 0 0 2.855-.78l3.743 3.22a.615.615 0 0 0 .738.047l3.293-2.168a.614.614 0 0 0 .235-.735l-1.733-4.454a16.954 16.954 0 0 0 1.867-2.29l4.921.443a.616.616 0 0 0 .628-.391l1.419-3.678a.615.615 0 0 0-.237-.735l-3.998-2.614a16.934 16.934 0 0 0 .188-2.951l4.259-2.501a.615.615 0 0 0 .284-.683Zm-1.306-.141-3.776 2.217-.129.007a.613.613 0 0 0-.579.647c.016.309.025.593.025.867 0 .931-.087 1.882-.259 2.826a.614.614 0 0 0 .494.714l.12.022 3.589 2.346-1.073 2.783-4.362-.392-.11-.07a.613.613 0 0 0-.847.189 15.825 15.825 0 0 1-2.338 2.868.61.61 0 0 0-.186.431.61.61 0 0 0 .173.437l.086.089 1.555 3.996-2.491 1.64-3.32-2.856-.048-.118a.616.616 0 0 0-.8-.339 15.581 15.581 0 0 1-3.568.975.615.615 0 0 0-.517.699l.017.118-1.059 4.155-2.98-.115-1.04-4.253.03-.126a.615.615 0 0 0-.454-.74 15.636 15.636 0 0 1-3.469-1.282.612.612 0 0 0-.827.267l-.055.108-3.278 2.765-2.358-1.827 1.628-4.065.1-.087a.613.613 0 0 0 .061-.867 15.778 15.778 0 0 1-2.08-3.059.612.612 0 0 0-.827-.262l-.108.056-4.274.342-.856-2.857 3.688-2.36.13-.013a.614.614 0 0 0 .554-.668 15.644 15.644 0 0 1-.071-1.47c0-.73.054-1.48.16-2.229a.614.614 0 0 0-.521-.695l-.12-.017-3.676-2.207.965-2.822 4.373.224.112.066c.294.17.669.071.84-.222a15.802 15.802 0 0 1 2.226-2.954.613.613 0 0 0-.019-.869l-.091-.086-1.707-3.933 2.426-1.735 3.428 2.726.053.118a.613.613 0 0 0 .812.307 15.66 15.66 0 0 1 3.528-1.111.613.613 0 0 0 .49-.718l-.023-.119.898-4.193h2.983l1.203 4.211-.025.124a.616.616 0 0 0 .482.723c1.609.32 3.154.892 4.593 1.699a.614.614 0 0 0 .836-.235l.06-.106 3.382-2.636 2.285 1.916-1.783 3.999-.102.083a.61.61 0 0 0-.095.863 15.732 15.732 0 0 1 1.962 3.137c.145.306.51.438.817.294l.108-.051 4.284-.178.745 2.888Zm-8.674 3.738c0-6.341-5.159-11.5-11.5-11.5s-11.5 5.159-11.5 11.5 5.159 11.5 11.5 11.5 11.5-5.159 11.5-11.5Zm-1.229 0c0 5.664-4.607 10.272-10.271 10.272-5.664 0-10.272-4.608-10.272-10.272 0-5.664 4.608-10.272 10.272-10.272 5.664 0 10.271 4.608 10.271 10.272Zm-4.686 0a5.591 5.591 0 0 0-5.585-5.585 5.59 5.59 0 0 0-5.585 5.585 5.591 5.591 0 0 0 5.585 5.585 5.592 5.592 0 0 0 5.585-5.585Zm-1.229 0a4.36 4.36 0 0 1-4.356 4.356 4.361 4.361 0 0 1-4.357-4.356 4.362 4.362 0 0 1 4.357-4.357 4.362 4.362 0 0 1 4.356 4.357Z" style="fill:#6db657;fill-rule:nonzero" transform="translate(1081.222 888.916)"/></g></svg>