<svg viewBox="0 0 54 54" xmlns="http://www.w3.org/2000/svg" xml:space="preserve" style="fill-rule:evenodd;clip-rule:evenodd;stroke-linejoin:round;stroke-miterlimit:2"><path d="M149.744-52.522c0-14.681-11.922-26.626-26.575-26.626-14.653 0-26.575 11.945-26.575 26.626 0 14.661 11.922 26.588 26.575 26.588 14.653 0 26.575-11.927 26.575-26.588Zm-2.636 0c0 13.207-10.739 23.952-23.939 23.952S99.23-39.315 99.23-52.522c0-13.228 10.739-23.99 23.939-23.99s23.939 10.762 23.939 23.99Zm-9.447 5.762v-11.562c0-4.819-3.915-8.737-8.733-8.737H117.41c-4.818 0-8.732 3.918-8.732 8.737v11.562c0 4.819 3.914 8.737 8.732 8.737h11.518c4.818 0 8.733-3.918 8.733-8.737Zm-2.711 0c0 3.313-2.709 5.988-6.022 5.988H117.41a5.98 5.98 0 0 1-5.985-5.988v-11.562a5.978 5.978 0 0 1 5.985-5.987h11.518c3.313 0 6.022 2.674 6.022 5.987v11.562Zm-2.446-13.256c0-.942-.752-1.696-1.694-1.696-.941 0-1.731.754-1.731 1.696 0 .978.79 1.733 1.731 1.733.942 0 1.694-.755 1.694-1.733Zm-2.107 7.682c0-3.954-3.238-7.193-7.19-7.193-3.915 0-7.152 3.239-7.152 7.193 0 3.916 3.237 7.154 7.152 7.154 3.952 0 7.19-3.238 7.19-7.154Zm-2.598 0c0 2.523-2.032 4.557-4.592 4.557a4.548 4.548 0 0 1-4.555-4.557c0-2.561 2.033-4.595 4.555-4.595a4.564 4.564 0 0 1 4.592 4.595Z" style="fill-rule:nonzero" transform="translate(-96.598 79.15)"/></svg>