<svg viewBox="0 0 54 54" xmlns="http://www.w3.org/2000/svg" xml:space="preserve" style="fill-rule:evenodd;clip-rule:evenodd;stroke-linejoin:round;stroke-miterlimit:2">
<g transform="translate(-1110 -1125)">
<path d="M136.99 87.261a.612.612 0 0 0-1.023-.555c-1.359 1.263-3.853 1.567-6.494 1.889-.824.1-1.674.204-2.528.341.372-1.214.564-2.402.564-3.541 0-3.52-1.604-8.12-4.766-13.673-2.336-4.102-4.706-7.236-4.73-7.267a.613.613 0 0 0-1.103.372c0 2.736-2.132 5.675-4.389 8.787-2.764 3.81-5.896 8.129-5.896 13.153 0 9.152 9.271 14.91 9.665 15.151.02.012.043.018.063.027.055 1.339.234 2.235.245 2.289l.005.019.01.036a.746.746 0 0 0 .027.071l.014.032a.699.699 0 0 0 .059.095l.003.002a.61.61 0 0 0 .108.107.693.693 0 0 0 .103.066l.021.008a.572.572 0 0 0 .098.035l.028.007.019.004c.083.015 1.842.321 4.18.321.298 0 .605-.005.918-.016 3.8-.135 6.67-1.08 8.531-2.809 1.828-1.7 3.44-4.741 4.79-9.039a50.974 50.974 0 0 0 1.478-5.912Zm-10.71-1.866c0 1.206-.242 2.483-.715 3.797-2.097.448-4.135 1.196-5.749 2.695-.922.857-1.669 1.907-2.233 3.116l1.011-18.029a.614.614 0 1 0-1.226-.069l-1.31 23.366c-2.274-1.656-8.204-6.635-8.204-13.504 0-4.626 2.878-8.594 5.661-12.432 1.964-2.707 3.838-5.291 4.43-7.874 2.333 3.326 8.335 12.513 8.335 18.934Zm9.203 3.106c-.67 3.016-2.486 9.919-5.598 12.811-2.96 2.751-8.513 2.617-11.136 2.373 2.019-1.58 6.143-4.847 8.333-6.868l2.971-2.743a.615.615 0 1 0-.833-.902l-2.971 2.742c-2.286 2.111-6.739 5.62-8.588 7.062-.218-2.127-.315-7.116 2.992-10.189 2.328-2.164 5.704-2.575 8.968-2.973 2.178-.265 4.263-.52 5.862-1.313ZM102.15 99.439c-2.021.6-3.93 1.167-5.292.687a.615.615 0 0 0-.717.917c.2.303 4.939 7.437 9.428 9.019.772.272 1.586.385 2.408.385 4.054 0 8.286-2.765 8.499-2.906l.011-.009a.525.525 0 0 0 .073-.06.498.498 0 0 0 .032-.033c.011-.012.022-.024.031-.037a.309.309 0 0 0 .026-.037c.01-.014.018-.029.027-.044.006-.012.013-.025.018-.038a.84.84 0 0 0 .022-.053c.002-.008.006-.015.009-.023l.002-.012a.583.583 0 0 0 .021-.109l.001-.004a.614.614 0 0 0-.001-.105l-.005-.035c-.002-.014-.002-.027-.005-.041-.014-.064-.347-1.607-1.284-3.374-1.259-2.376-3.021-4.019-5.094-4.749-2.736-.965-5.644-.101-8.21.661Zm.349 1.178c2.504-.744 5.092-1.512 7.453-.681 1.794.633 3.275 2.025 4.402 4.138.406.762.689 1.482.877 2.037l-9.184-2.791a.614.614 0 1 0-.357 1.175l8.922 2.712c-1.906 1.024-5.732 2.719-8.635 1.696-3.07-1.082-6.458-5.294-7.985-7.368h.046c1.369 0 2.884-.45 4.461-.918Z" style="fill:#6db657;fill-rule:nonzero" transform="translate(1019.535 1064.67)"/></g></svg>