<svg viewBox="0 0 54 54" xmlns="http://www.w3.org/2000/svg" xml:space="preserve" style="fill-rule:evenodd;clip-rule:evenodd;stroke-linejoin:round;stroke-miterlimit:2"><path d="M297.821-124.186c0-14.661-11.922-26.587-26.575-26.587-14.653 0-26.575 11.926-26.575 26.587 0 14.68 11.922 26.624 26.575 26.624 14.653 0 26.575-11.944 26.575-26.624Zm-2.637 0c0 13.227-10.738 23.988-23.938 23.988s-23.939-10.761-23.939-23.988c0-13.207 10.739-23.952 23.939-23.952s23.938 10.745 23.938 23.952Zm-16.485 12.691h5.195v-10.696c0-4.556-2.56-6.742-6.136-6.742s-5.081 2.788-5.081 2.788v-2.26h-5.007v16.91h5.007v-8.889c0-2.371 1.092-3.766 3.199-3.766 1.92 0 2.823 1.357 2.823 3.766v8.889Zm-13.926-22.257a3.103 3.103 0 0 0-3.087-3.089c-1.731 0-3.124 1.395-3.124 3.089a3.117 3.117 0 0 0 3.124 3.125c1.694 0 3.087-1.393 3.087-3.125Zm-.452 5.347h-5.232v16.91h5.232v-16.91Z" style="fill-rule:nonzero" transform="translate(-244.675 150.77)"/></svg>