<svg viewBox="0 0 54 54" xmlns="http://www.w3.org/2000/svg" xml:space="preserve" style="fill-rule:evenodd;clip-rule:evenodd;stroke-linejoin:round;stroke-miterlimit:2">
<g transform="translate(-1110 -1039)">
<path d="M205.61 93.91c-.216-2.375-1.649-2.444-1.812-2.444l-.32.003c-1.01.019-1.55-.012-1.847-.804-.452-1.205-2.314-3.429-3.074-4.308.696-1.106 2.196-3.124 3.505-3.451a.615.615 0 0 0 .222-1.085c-.053-.04-5.252-3.891-9.963.48a32.273 32.273 0 0 0-3.46-.804 7.31 7.31 0 0 0 .887-3.491c0-4.035-3.283-7.318-7.318-7.318s-7.318 3.283-7.318 7.318c0 1.38.385 2.692 1.07 3.814-4.852 1.347-8.529 4.231-10.945 8.58-.693-.056-2.118-.11-3.426.234a2.343 2.343 0 0 0-.143-.068c-.957-.417-2.677-.454-5.445 1.737a.614.614 0 1 0 .763.964c1.075-.852 2.064-1.397 2.876-1.603-.512.514-.789 1.162-.824 1.931-.057 1.259.358 2.242 1.14 2.698.289.168.614.252.943.252.372 0 .749-.107 1.087-.319.832-.523 1.273-1.542 1.179-2.728-.056-.716-.232-1.332-.515-1.824a10.38 10.38 0 0 1 1.774-.08c-2.108 5.127 1.771 9.145 2.733 10.035.099 1.241.659 6.525 3.192 9.85a.616.616 0 0 0 .489.242h4.285a.614.614 0 0 0 .614-.615v-4.338c1.675.96 5.37 2.453 10.689 1.125l1.503 3.458c.098.225.319.37.564.37h4.456a.615.615 0 0 0 .613-.651l-.314-5.346c.861-.285 2.692-.991 4.054-2.217.473-.426.884-.84 1.247-1.206 1.01-1.019 1.571-1.551 2.285-1.551 1.435 0 3.222 0 3.681-1.836.346-1.384.847-4.716.869-4.857a.658.658 0 0 0 .004-.147Zm-43.447-.315c.057.721-.171 1.316-.608 1.591-.252.158-.536.176-.759.045-.373-.217-.566-.793-.531-1.58.024-.518.219-.923.597-1.239.206-.172.456-.311.734-.421.387.415.525 1.068.567 1.604Zm26.356-15.589a6.08 6.08 0 0 1-3.719 5.611c-.034.015-.069.026-.103.04a29.201 29.201 0 0 0-4.299.089 6.085 6.085 0 0 1-4.058-5.74 6.097 6.097 0 0 1 6.09-6.09 6.096 6.096 0 0 1 6.089 6.09Zm15.86 15.946c-.079.516-.53 3.45-.834 4.664-.205.82-.916.906-2.489.906-1.259 0-2.097.845-3.158 1.914-.35.354-.749.755-1.195 1.158-1.58 1.421-4.009 2.085-4.033 2.091a.614.614 0 0 0-.455.629l.305 5.178h-3.403l-1.553-3.573a.615.615 0 0 0-.729-.347c-3.629 1.014-6.45.574-8.177.027-1.876-.594-2.909-1.441-2.918-1.448a.613.613 0 0 0-1.009.47v4.871h-3.36c-2.433-3.437-2.78-9.132-2.783-9.19a.62.62 0 0 0-.225-.442c-.013-.011-1.311-1.083-2.222-2.805-1.187-2.243-1.195-4.503-.023-6.716 2.319-4.381 5.972-7.222 10.854-8.455.388.434.828.824 1.315 1.158a20.82 20.82 0 0 0-4.206 1.23.614.614 0 1 0 .471 1.134c3.23-1.343 6.69-1.657 9.713-1.54.153.098.345.13.53.067.033-.011.066-.026.099-.038 2.168.128 4.074.464 5.457.775a.615.615 0 0 0 .269-1.198 35.781 35.781 0 0 0-3.768-.637c.47-.357.892-.766 1.259-1.218 2.495.405 4.163.956 4.18.961a.613.613 0 0 0 .629-.148c2.968-2.968 6.159-1.968 7.695-1.189-.647.425-1.319 1.072-2.01 1.935-.792.99-1.317 1.905-1.339 1.943a.614.614 0 0 0 .074.713c.742.835 2.752 3.228 3.141 4.264.615 1.641 2.06 1.616 3.017 1.602.101-.002.202-.004.3-.004.266 0 .516.733.581 1.258Zm-6.447-2.934c0-.905-.737-1.642-1.642-1.642-.906 0-1.643.737-1.643 1.642 0 .906.737 1.643 1.643 1.643.905 0 1.642-.737 1.642-1.643Z" style="fill:#6db657;fill-rule:nonzero" transform="translate(956.199 974.692)"/></g></svg>