<svg viewBox="0 0 183 183" xmlns="http://www.w3.org/2000/svg" xml:space="preserve" style="fill-rule:evenodd;clip-rule:evenodd;stroke-linejoin:round;stroke-miterlimit:2"><path d="M42.169 198.077c-32.352 0-60.821 16.925-77.012 42.381-8.974 14.11-14.176 30.841-14.176 48.764 0 50.255 40.904 91.143 91.188 91.143 50.348 0 91.312-40.888 91.312-91.143 0-50.256-40.964-91.145-91.312-91.145Zm0 9.042c45.364 0 82.27 36.83 82.27 82.103 0 45.271-36.906 82.103-82.27 82.103-45.298 0-82.148-36.832-82.148-82.103 0-45.273 36.85-82.103 82.148-82.103Zm43.369 109.727-40.835-70.604-40.786 70.604h81.621Z" style="fill-rule:nonzero" transform="rotate(90 165.673 214.692)"/></svg>