<svg viewBox="0 0 54 54" xmlns="http://www.w3.org/2000/svg" xml:space="preserve" style="fill-rule:evenodd;clip-rule:evenodd;stroke-linejoin:round;stroke-miterlimit:2"><path d="M223.368-267.478c0-14.661-11.921-26.588-26.574-26.588-14.653 0-26.575 11.927-26.575 26.588 0 14.68 11.922 26.623 26.575 26.623 14.653 0 26.574-11.943 26.574-26.623Zm-2.635 0c0 13.227-10.74 23.987-23.939 23.987-13.2 0-23.939-10.76-23.939-23.987 0-13.207 10.739-23.952 23.939-23.952 13.199 0 23.939 10.745 23.939 23.952Zm-10.464-8.323c-1.015.414-2.07.715-3.2.866a5.416 5.416 0 0 0 2.447-3.088c-1.054.64-2.258 1.129-3.5 1.356a5.598 5.598 0 0 0-4.027-1.733c-3.576 0-6.211 3.314-5.383 6.778-4.593-.225-8.658-2.447-11.406-5.761a5.539 5.539 0 0 0 1.733 7.38 5.624 5.624 0 0 1-2.523-.714c-.075 2.56 1.77 4.971 4.442 5.498a5.051 5.051 0 0 1-2.484.076c.677 2.221 2.709 3.803 5.156 3.84-2.334 1.845-5.27 2.637-8.206 2.298a15.526 15.526 0 0 0 8.47 2.486c10.275 0 16.073-8.663 15.696-16.421a11.837 11.837 0 0 0 2.785-2.861Z" style="fill-rule:nonzero" transform="translate(-170.223 294.06)"/></svg>