<svg viewBox="0 0 54 54" xmlns="http://www.w3.org/2000/svg" xml:space="preserve" style="fill-rule:evenodd;clip-rule:evenodd;stroke-linejoin:round;stroke-miterlimit:2"><path d="M297.408-195.814c0-14.682-11.939-26.625-26.614-26.625-14.653 0-26.573 11.943-26.573 26.625 0 14.661 11.92 26.588 26.573 26.588 14.675 0 26.614-11.927 26.614-26.588Zm-2.636 0c0 13.206-10.756 23.951-23.978 23.951-13.199 0-23.937-10.745-23.937-23.951 0-13.227 10.738-23.989 23.937-23.989 13.222 0 23.978 10.762 23.978 23.989Zm-10.125-.377v-.339c-.188-7.306-6.173-13.143-13.589-13.143-7.302 0-13.287 5.724-13.587 12.918 0 .188-.039.376-.039.564 0 2.561.716 4.971 1.958 7.004l-2.447 7.232 7.529-2.374a13.87 13.87 0 0 0 6.586 1.658c7.529 0 13.589-6.025 13.589-13.52Zm-2.146 0c0 6.289-5.156 11.373-11.443 11.373-2.334 0-4.479-.678-6.285-1.883l-4.405 1.394 1.43-4.218a11.14 11.14 0 0 1-2.183-6.666c0-.339 0-.715.039-1.092.564-5.761 5.457-10.243 11.404-10.243 6.023 0 10.954 4.594 11.406 10.47.037.301.037.564.037.865Zm-4.781 4.708c.302-.791.302-1.431.227-1.582-.113-.15-.34-.226-.641-.377-.339-.188-1.994-.978-2.295-1.091-.301-.114-.528-.151-.753.187-.227.302-.867 1.055-1.054 1.281-.188.226-.376.264-.716.075-.338-.151-1.43-.489-2.709-1.657a9.658 9.658 0 0 1-1.845-2.259c-.188-.34 0-.527.151-.678.15-.151.338-.414.489-.602a.291.291 0 0 0 .15-.151c.076-.113.114-.227.188-.377.113-.225.076-.415 0-.602-.112-.151-.753-1.77-1.053-2.449-.264-.677-.565-.564-.753-.564h-.639a1.23 1.23 0 0 0-.867.376c-.338.339-1.167 1.168-1.167 2.787 0 .377.039.753.151 1.13.34 1.168 1.054 2.109 1.204 2.298.151.225 2.297 3.651 5.684 5.008 3.388 1.318 3.388.866 4.028.828.602-.075 1.956-.828 2.22-1.581Z" style="fill-rule:nonzero" transform="translate(-244.225 222.43)"/></svg>