<svg viewBox="0 0 54 54" xmlns="http://www.w3.org/2000/svg" xml:space="preserve" style="fill-rule:evenodd;clip-rule:evenodd;stroke-linejoin:round;stroke-miterlimit:2"><path d="M149.744-124.186c0-14.661-11.922-26.587-26.575-26.587-14.653 0-26.575 11.926-26.575 26.587 0 14.68 11.922 26.624 26.575 26.624 14.653 0 26.575-11.944 26.575-26.624Zm-2.636 0c0 13.227-10.739 23.988-23.939 23.988S99.23-110.959 99.23-124.186c0-13.207 10.739-23.952 23.939-23.952s23.939 10.745 23.939 23.952ZM138-116.692c.64-2.41.64-7.494.64-7.494s0-5.084-.64-7.494a3.77 3.77 0 0 0-2.748-2.749c-2.409-.68-12.083-.68-12.083-.68s-9.673 0-12.083.68c-1.354.337-2.37 1.393-2.746 2.749-.641 2.41-.641 7.494-.641 7.494s0 5.084.641 7.494c.376 1.354 1.392 2.41 2.746 2.785 2.41.641 12.083.641 12.083.641s9.674 0 12.083-.641a3.881 3.881 0 0 0 2.748-2.785Zm-9.9-7.494-8.092 4.593v-9.188l8.092 4.595Z" style="fill-rule:nonzero" transform="translate(-96.598 150.77)"/></svg>